<?xml version="1.0" encoding="utf-8"?>
<!-- Generator: Adobe Illustrator 27.5.0, SVG Export Plug-In . SVG Version: 6.00 Build 0)  -->
<svg version="1.1" id="Capa_1" xmlns="http://www.w3.org/2000/svg" xmlns:xlink="http://www.w3.org/1999/xlink" x="0px" y="0px"
	 viewBox="0 0 425.2 425.2" style="enable-background:new 0 0 425.2 425.2;" xml:space="preserve">
<rect x="0.002" y="0.002" style="fill:#FFFFFF;" width="425.196" height="425.196"/>
<g>
	<g>
		<path style="fill:#9D9D9C;" d="M284.632,385.434c0,6.549-5.308,11.855-11.855,11.855H130.522c-6.546,0-11.854-5.307-11.854-11.855
			V121.206c0-6.547,5.308-11.854,11.854-11.854h142.255c6.546,0,11.855,5.307,11.855,11.854V385.434z"/>
		<path style="fill:#39404A;" d="M280.688,381.612c0,6.236-5.055,11.292-11.29,11.292H133.902c-6.235,0-11.292-5.056-11.292-11.292
			V124.29c0-6.236,5.057-11.291,11.292-11.291h135.497c6.235,0,11.29,5.055,11.29,11.291V381.612z"/>
		<path style="fill:#DCDCDC;" d="M222.32,123.331c0,1.848-1.498,3.344-3.344,3.344h-34.651c-1.846,0-3.344-1.497-3.344-3.344l0,0
			c0-1.846,1.498-3.343,3.344-3.343h34.651C220.822,119.988,222.32,121.485,222.32,123.331L222.32,123.331z"/>
		<path style="fill:#FFFFFF;" d="M271.562,352.344c0,6.548-5.308,11.854-11.856,11.854H143.592c-6.546,0-11.854-5.307-11.854-11.854
			V143.22c0-6.547,5.308-11.854,11.854-11.854h116.113c6.548,0,11.856,5.307,11.856,11.854V352.344z"/>
		<path style="fill:#C6C6C6;" d="M259.706,131.365H143.592c-6.546,0-11.854,5.307-11.854,11.854v209.124
			c0,6.548,5.308,11.854,11.854,11.854L259.706,131.365z"/>
		<path style="fill:#C6C6C6;" d="M226.63,378.661c0,4.364-3.538,7.901-7.902,7.901h-34.157c-4.364,0-7.904-3.537-7.904-7.901l0,0
			c0-4.364,3.54-7.903,7.904-7.903h34.157C223.093,370.758,226.63,374.297,226.63,378.661L226.63,378.661z"/>
	</g>
	<g>
		<path style="fill:#95C11F;" d="M28.556,178.777c0,36.325,29.449,65.776,65.776,65.776c7.7,0,15.089-1.334,21.958-3.769
			c9.743,14.173,31.555,16.259,31.555,16.259c-9.457-6.408-8.897-21.757-7.469-31.31c12.172-11.936,19.733-28.559,19.733-46.956
			c0-36.328-29.448-65.778-65.776-65.778C58.004,112.999,28.556,142.449,28.556,178.777z"/>
		<path style="fill:#DADADA;" d="M140.375,225.733c8.377-8.214,14.569-18.646,17.616-30.35c-3.999,1.684-8.176,2.972-12.471,3.81
			c-27.756,5.416-60.249-4.3-72.116-32.252c-3.696-8.709-6.418-17.895-5.918-27.505c0.406-7.84,1.931-15.232,4.279-22.463
			c-25.211,9.209-43.209,33.404-43.209,61.804c0,36.325,29.449,65.776,65.776,65.776c7.7,0,15.089-1.334,21.958-3.769
			c9.743,14.173,31.555,16.259,31.555,16.259C138.387,250.635,138.947,235.286,140.375,225.733z"/>
		<path style="fill:#FFFFFF;" d="M138.504,162.113c-5.442,9.982-21.228,11.872-35.261,4.222
			c-14.034-7.649-20.999-21.943-15.559-31.924c5.441-9.981,21.228-11.871,35.262-4.22
			C136.979,137.841,143.945,152.133,138.504,162.113z"/>
		<path style="fill:#FFFFFF;" d="M134.859,178.777c0,5.62-4.555,10.179-10.179,10.179s-10.18-4.559-10.18-10.179
			s4.556-10.179,10.18-10.179S134.859,173.157,134.859,178.777z"/>
		<path style="fill:#FFFFFF;" d="M84.154,178.777c0-5.62,4.558-10.179,10.178-10.179c5.621,0,10.179,4.559,10.179,10.179
			s-4.558,10.179-10.179,10.179C88.712,188.956,84.154,184.397,84.154,178.777z"/>
		<path style="fill:#FFFFFF;" d="M53.807,178.777c0-5.62,4.557-10.179,10.179-10.179c5.623,0,10.175,4.559,10.175,10.179
			s-4.552,10.179-10.175,10.179C58.364,188.956,53.807,184.397,53.807,178.777z"/>
	</g>
	<g>
		<path style="fill:#B00060;" d="M348.869,40.318H241.116c-13.863,0-25.101,12.039-25.101,26.89v55.325
			c0,14.85,11.238,26.89,25.101,26.89h77.504c0,0,7.079,12.229,0,28.962c0,0,33.994-8.582,38.237-30.358l-0.054,0.002
			c9.971-3.56,17.166-13.619,17.166-25.496V67.207C373.969,52.357,362.731,40.318,348.869,40.318z"/>
		<path style="fill:#CACACA;" d="M347.132,103.061c-20.563,8.7-46.189,13.54-67.668,4.792c-13.136-5.352-24.703-13.066-31.99-25.649
			c-6.079-10.497-9.289-23.106-8.761-35.253c0.096-2.202,0.279-4.386,0.539-6.551c-12.991,1.024-23.236,12.631-23.236,26.808v55.325
			c0,14.85,11.238,26.89,25.101,26.89h77.504c0,0,7.079,12.229,0,28.962c0,0,33.994-8.582,38.237-30.358l-0.054,0.002
			c9.971-3.56,17.166-13.619,17.166-25.496V84.971C366.312,92.781,356.824,98.96,347.132,103.061z"/>
		<ellipse style="fill:#FFFFFF;" cx="312.123" cy="62.424" rx="49.584" ry="16.088"/>
		<rect x="245.989" y="63.817" style="fill:#FFFFFF;" width="98.006" height="11.819"/>
		<rect x="245.989" y="88.96" style="fill:#FFFFFF;" width="98.006" height="11.82"/>
		<rect x="245.989" y="114.104" style="fill:#FFFFFF;" width="98.006" height="11.819"/>
	</g>
	<g>
		<g>
			<rect x="249.601" y="331.858" style="fill:#EFBFA5;" width="42.179" height="24.373"/>
			<path style="fill:#DADADA;" d="M261.397,350.542c6.784-0.227,13.388-2.411,18.602-5.731c4.232-2.695,7.646-5.897,10.21-9.633
				c0.502-0.734,1.059-1.566,1.571-2.455v-0.864h-42.179v18.235C253.522,350.497,257.493,350.675,261.397,350.542z"/>
		</g>
		<path style="fill:#EFBFA5;" d="M322.925,265.511c0-39.072-23.41-61.529-52.359-61.712c-0.083-0.001-0.167-0.004-0.25-0.004
			c-0.018,0-0.037,0-0.055,0c-0.017,0-0.035,0-0.053,0c-0.085,0-0.168,0.003-0.252,0.004c-28.949,0.184-52.357,22.64-52.357,61.712
			c0,50.676,36.478,80.227,52.606,80.358l0.002,0.003c0.018,0,0.037-0.003,0.053-0.003c0.018,0,0.037,0.003,0.055,0.003l0.002-0.003
			C286.445,345.737,322.925,316.186,322.925,265.511z"/>
		<g>
			<path style="fill:#EFBFA5;" d="M317.735,279.977l-3.007,23.025c11.814,5.202,13.661-21.895,13.661-21.895
				C325.659,274.352,317.735,279.977,317.735,279.977z"/>
			<path style="fill:#EFBFA5;" d="M213.467,281.107c0,0,1.846,27.097,13.662,21.895l-3.006-23.025
				C224.123,279.977,216.196,274.352,213.467,281.107z"/>
		</g>
		<path style="fill:#432918;" d="M311.376,245.43"/>
		<path style="fill:#EFBFA5;" d="M249.436,354.373l-50.733,15.69c0,0-17.753,3.15-22.285,21.631l-7.765,33.506h101.164h0.889
			h101.165l-7.766-33.506c-4.53-18.48-22.285-21.631-22.285-21.631l-50.733-15.69H249.436z"/>
		<path style="fill:#D42A26;" d="M320.363,363.427l21.457,6.637c0,0,17.755,3.15,22.285,21.631l7.766,33.506H270.706h-0.889H168.653
			l7.765-33.506c4.531-18.48,22.285-21.631,22.285-21.631l21.595-6.681c0,0,0,47.55,49.964,48.755
			C270.262,412.138,319.385,417.197,320.363,363.427z"/>
		<path style="fill:#432918;" d="M245.909,217.485c0.015,0.032,25.564,51.855,75.65,60.296c0,0,3.222-0.867,5.383,1.138
			c-0.392-0.362,0.776-6.503,0.821-7.086c0.484-6.167,0.903-12.373,0.606-18.56c-0.721-14.983-5.811-33.678-15.915-45.115
			c-3.535-4.003-7.982-6.972-12.779-9.257c-9.185-4.372-19.077-6.605-29.255-6.247c-7.773,0.274-17.622,2.29-22.029,9.437
			c-1.286,2.086-1.917,4.462-2.241,6.869C245.882,210.969,245.005,215.653,245.909,217.485z"/>
		<path style="fill:#432918;" d="M249.601,223.989c0,0-24.944,13.242-31.263,53.8c0,0-5.393,0.007-4.751,4.651
			c0,0-10.734-72.616,34.804-80.349L249.601,223.989z"/>
		<path style="fill:#432918;" d="M225.249,303.666c0,0,8.14,19.846,23.794,32.279c0,0,0.393,18.419,0.393,18.428
			c0.2,9.43-3.64,17.975-9.678,25.069c-5.719,6.718-13.753,11.06-19.281,17.854c-4.221,5.189-4.596,11.15-0.421,16.48
			c-0.61-0.778-8.268,0.057-9.816-0.195c-2.018-0.323-4.005-0.979-5.901-1.733c-4.784-1.904-8.36-5.335-10.202-10.205
			c-1.397-3.693-1.418-7.974-0.987-11.856c2.063-18.531,24.053-21.893,28.715-38.315c1.666-5.866,0.088-10.921-0.686-16.736
			C221.179,334.735,217.759,309.061,225.249,303.666z"/>
		<path style="fill:#432918;" d="M313.423,275.982c0,0,3.313,114.956-12.427,139.37c0,0,18.95,11.238,20.563-137.571
			L313.423,275.982z"/>
		<path style="fill:#523421;" d="M257.953,201.586c-3.096,7.33,1.597,21.383,4.842,28.28c-0.362-3.372,0.394-6.9,1.556-9.933
			c5.171,8.555,7.67,30.168,18.209,33.05c0.263-4.461-1.189-8.775-0.914-13.296c8.251,6.206,13.579,20.003,23.403,24.941
			c1.506-2.695,0.359-7.866-0.168-10.873c3.083,4.684,11.039,15.129,16.599,15.689c-0.224-4.161-4.228-8.702-6.19-12.424
			c-1.698-3.218-3.2-7.922-6.663-9.12c0.112,0.996-0.273,2.247-0.154,3.248c-4.339-1.573-6.229-12.24-11.146-15.717
			c-5.709-4.042-3.451,3.133-3.828,8.036c-4.707-6.831-6.963-16.575-12.298-23.053c-1.17,2.418-1.762,5.319-3.506,7.259
			c-4.488-8.56-6.54-33.237-22.15-26.569"/>
		<path style="fill:#523421;" d="M228.563,317.221c-1.579,4.408-1.466,14.433-0.012,18.389c0.348-0.426,1.041-1.109,1.335-1.487
			c2.854,7.27,1.252,22.409-3.297,28.711c0.379-0.775,0.99-1.605,1.395-2.21c0.336,6.334-7.273,15.44-12.393,18.617
			c0.022-0.654-0.181-1.508-0.137-2.129c-5.114,6.516-6.569,15.135-10.439,22.277c0.385-0.976,0.99-1.349,1.743-2.137
			c0.209,0.707,0.928,1.625,1.077,2.222c4.183-6.114,7.053-14.793,11.608-20.221c1.261,3.515,0.893,7.496,4.784,4.047
			c2.393-2.123,2.251-7.323,5.335-9.387c0.831-0.56,0.809-1.45,1.89-1.835c0.896-0.313,1.664,2.04,1.904,1.921
			c4.061-2.022,4.961-8.784,6.394-13.306c1.489-4.697,1.603-11.216,1.268-16.967c-0.545,0.819-2.258,1.794-2.925,2.855
			c-2.929-2.717-1.788-8.641-2.653-12.146c-0.684-2.769-2.276-6.057-3.119-8.984c-2.752,0.154-4.773-2.161-4.723-4.857"/>
	</g>
</g>
</svg>
